<?xml version="1.0" standalone="no"?><!DOCTYPE svg PUBLIC "-//W3C//DTD SVG 1.1//EN" "http://www.w3.org/Graphics/SVG/1.1/DTD/svg11.dtd"><svg t="1701958328215" class="icon" viewBox="0 0 1117 1024" version="1.1" xmlns="http://www.w3.org/2000/svg" p-id="11801" xmlns:xlink="http://www.w3.org/1999/xlink" width="218.1640625" height="200"><path d="M535.289949 491.799273c24.901818-1.954909 49.477818 10.053818 69.818182 31.418182-23.458909-29.975273-53.527273-56.32-86.295273-80.430546-134.050909-98.443636-313.716364-159.511273-272.570182-277.271273-545.466182 540.718545-58.181818 704.232727 248.878546 744.727273-158.440727-156.392727-284.765091-335.127273-280.203637-540.718545l1.396364-24.669091 6.190546-24.948364c9.681455 35.002182 4.840727 14.056727 10.705454 48.826182 37.096727 217.506909 149.131636 364.218182 321.489455 517.538909-50.967273-77.963636-80.151273-145.780364-92.346182-205.358545a223.045818 223.045818 0 0 1-6.981818-33.373091 203.170909 203.170909 0 0 1 3.258181-73.216c11.077818-46.545455 39.424-79.592727 76.613819-82.525091" p-id="11802"></path><path d="M875.35104 0c47.755636 202.146909-275.549091 268.8-407.738182 475.415273 28.253091 26.112 54.085818 54.690909 74.24 87.179636 20.945455 27.601455 36.724364 69.678545 41.704727 117.899636a268.753455 268.753455 0 0 1-5.538909 91.927273c-11.031273 43.752727-33.978182 74.007273-63.301818 76.893091-40.354909 4.002909-79.685818-45.614545-95.790545-115.712 10.565818 64.558545 35.607273 138.053818 79.546182 222.580364l3.956363 7.726545c195.397818-201.541818 324.701091-395.543273 376.180364-689.710545 8.145455-46.545455 1.861818-18.525091 14.103273-65.303273l5.21309 33.838545 0.232728 33.28c-5.864727 277.038545-150.341818 512.698182-327.912728 716.939637 330.472727-42.216727 860.16-243.013818 305.105455-992.954182" p-id="11803"></path></svg>